HIERARCHY
ROOT root
{
	OFFSET	0	13.1	24.9
	CHANNELS 6  Xposition Yposition Zposition Xrotation Yrotation Zrotation
	JOINT spine_1
	{
		OFFSET	0	9.99999	0
		CHANNELS 3  Xrotation Yrotation Zrotation
		JOINT spine_2
		{
			OFFSET	0	112	-10
			CHANNELS 3  Xrotation Yrotation Zrotation
			JOINT spine_3
			{
				OFFSET	0	206.5	19.3
				CHANNELS 3  Xrotation Yrotation Zrotation
				JOINT spine_4
				{
					OFFSET	0	110.4	14.6
					CHANNELS 3  Xrotation Yrotation Zrotation
					JOINT neck_1
					{
						OFFSET	0	71.8	-50.3
						CHANNELS 3  Xrotation Yrotation Zrotation
						JOINT neck_2
						{
							OFFSET	0	86.2	-25.8
							CHANNELS 3  Xrotation Yrotation Zrotation
							JOINT head_ee
							{
								OFFSET	0	179.8	-8.7
								CHANNELS 3  Xrotation Yrotation Zrotation
								End Site
								{
									OFFSET	1	0	0
								}
							}
						}
					}
					JOINT left_clavicle
					{
						OFFSET	-43.2	22.4	-70.8
						CHANNELS 3  Xrotation Yrotation Zrotation
						JOINT left_shoulder
						{
							OFFSET	-93.9	-5.79999	48.7
							CHANNELS 3  Xrotation Yrotation Zrotation
							JOINT left_elbow
							{
								OFFSET	-291.4	-30.8	15.2
								CHANNELS 3  Xrotation Yrotation Zrotation
								JOINT left_lowarm_twist
								{
									OFFSET	-110.7	-3.89999	13.6
									CHANNELS 3  Xrotation Yrotation Zrotation
									JOINT left_hand
									{
										OFFSET	-110.7	-3.89999	13.6
										CHANNELS 3  Xrotation Yrotation Zrotation
										JOINT left_ee
										{
											OFFSET	-80.8	-5.10001	12.1
											CHANNELS 3  Xrotation Yrotation Zrotation
											End Site
											{
												OFFSET	1	0	0
											}
										}
									}
								}
							}
						}
					}
					JOINT right_clavicle
					{
						OFFSET	43.2	22.4	-70.8
						CHANNELS 3  Xrotation Yrotation Zrotation
						JOINT right_shoulder
						{
							OFFSET	93.9	-5.79999	48.7
							CHANNELS 3  Xrotation Yrotation Zrotation
							JOINT right_elbow
							{
								OFFSET	291.4	-30.8	15.2
								CHANNELS 3  Xrotation Yrotation Zrotation
								JOINT right_lowarm_twist
								{
									OFFSET	110.7	-3.89999	13.6
									CHANNELS 3  Xrotation Yrotation Zrotation
									JOINT right_hand
									{
										OFFSET	110.7	-3.89999	13.6
										CHANNELS 3  Xrotation Yrotation Zrotation
										JOINT right_ee
										{
											OFFSET	80.8	-5.10001	12.1
											CHANNELS 3  Xrotation Yrotation Zrotation
											End Site
											{
												OFFSET	1	0	0
											}
										}
									}
								}
							}
						}
					}
				}
			}
		}
	}
	JOINT left_hip
	{
		OFFSET	-82.8	-127.5	0.300001
		CHANNELS 3  Xrotation Yrotation Zrotation
		JOINT left_knee
		{
			OFFSET	-28.2	-396.7	2.2
			CHANNELS 3  Xrotation Yrotation Zrotation
			JOINT left_ankle
			{
				OFFSET	-11.7	-411.3	35.4
				CHANNELS 3  Xrotation Yrotation Zrotation
				JOINT left_toes
				{
					OFFSET	0	-60	-88.6
					CHANNELS 3  Xrotation Yrotation Zrotation
					JOINT left_foot_ee
					{
						OFFSET	-22.5	-16.5	-42.2
						CHANNELS 3  Xrotation Yrotation Zrotation
						End Site
						{
							OFFSET	1	0	0
						}
					}
				}
			}
		}
	}
	JOINT right_hip
	{
		OFFSET	82.8	-127.5	0.300001
		CHANNELS 3  Xrotation Yrotation Zrotation
		JOINT right_knee
		{
			OFFSET	28.2	-396.7	2.2
			CHANNELS 3  Xrotation Yrotation Zrotation
			JOINT right_ankle
			{
				OFFSET	11.7	-411.3	35.4
				CHANNELS 3  Xrotation Yrotation Zrotation
				JOINT right_toes
				{
					OFFSET	0	-60	-88.6
					CHANNELS 3  Xrotation Yrotation Zrotation
					JOINT right_foot_ee
					{
						OFFSET	22.5	-16.5	-42.2
						CHANNELS 3  Xrotation Yrotation Zrotation
						End Site
						{
							OFFSET	1	0	0
						}
					}
				}
			}
		}
	}
}
MOTION
Frames: 10
Frame Time: 0.02
1114.56128915 704.14 -1797.43955568 -20.8692857502 19.342365825 4.81828008635 6.89768 0.2523 0.824517 6.89804 0.199324 0.838899 6.90043 0.122008 0.853577 6.8995 0.255279 0.823599 -12.2002 6.30294 -0.688416 -12.2841 12.3998 1.1448 -0.0 0.0 -0.0 -3.06153 23.2644 -1.51968 -15.6077 -18.0468 77.1211 0.252194 -7.12121 0.0156927 17.3283 0.281731 -2.18718 2.33825 -19.9332 7.03747 -0.0 0.0 -0.0 12.995 26.6541 -25.5871 63.7912 -62.6666 -22.3179 0.187466 5.30569 -0.00868604 77.7625 3.58308 8.47864 -1.50934 19.565 18.6011 0.0 0.0 0.0 40.3845 11.2918 -1.064 -59.7481 -2.17284 8.49763 26.1005 27.6202 -3.70369 31.8172 -0.0 -0.0 -0.0 0.0 -0.0 33.2082 -11.3505 3.67574 -17.8204 -0.315214 -2.70552 37.2745 27.8492 5.50198 1.62955 -0.0 -0.0 0.0 0.0 0.0 
1097.43577402 709.018 -1809.45263281 -19.8405329599 18.9960058913 4.11477341312 6.54708 0.470642 1.00138 6.54755 0.405972 1.02929 6.55417 0.30405 1.06386 6.55289 0.468243 1.0025 -15.1388 6.70922 -0.936018 -15.2965 13.3878 1.37824 -0.0 0.0 -0.0 -2.44474 23.2219 -0.676179 -17.2471 -13.2343 76.7998 0.195951 -5.54437 0.00948826 18.5151 0.276657 -2.33869 1.20666 -13.56 2.35333 -0.0 0.0 -0.0 13.1776 26.6353 -26.0111 73.3053 -63.3085 -15.9231 0.184041 5.2093 -0.00837228 78.2443 3.63766 8.50772 -0.962904 22.6926 16.0953 0.0 0.0 0.0 43.4336 10.3916 -1.35756 -58.1547 -2.00406 8.31901 20.9603 28.2954 -3.05623 30.6865 -0.0 -0.0 -0.0 0.0 -0.0 30.5675 -6.53225 3.07921 -17.4928 -0.317058 -2.6553 35.1235 20.9872 4.92577 5.32284 -0.0 -0.0 0.0 0.0 0.0 
1069.66347748 710.198 -1817.64985098 -19.7317097764 20.5561138209 4.03070980942 6.69887 0.524697 0.925569 6.69922 0.46474 0.957078 6.70643 0.372213 0.996711 6.70543 0.524947 0.925427 -15.009 6.18703 -0.355166 -15.1353 12.0433 1.73113 -0.0 0.0 -0.0 -0.771598 23.5115 1.66553 -23.4142 -13.9853 74.4427 0.226117 -6.39132 0.0126248 18.1161 0.278713 -2.28777 0.0325909 -17.0847 -7.05356 -0.0 0.0 -0.0 12.9824 26.7358 -25.5479 66.4219 -61.6965 -22.1162 0.182111 5.15497 -0.00819793 79.7872 3.81403 8.59773 -0.700859 22.2413 14.1402 0.0 0.0 0.0 45.877 6.63427 0.226413 -58.5535 -2.04583 8.36415 20.7697 27.8546 -3.0219 28.8494 -0.0 -0.0 -0.0 0.0 -0.0 29.1102 -6.25874 4.74033 -17.859 -0.314978 -2.71145 36.267 23.493 5.15772 6.34413 -0.0 -0.0 0.0 0.0 0.0 
1052.54089725 713.173 -1829.42789534 -19.8269952112 22.3763341244 4.79725741252 6.45284 0.579049 0.997464 6.45324 0.514408 1.03228 6.4619 0.409967 1.07803 6.46074 0.575068 0.999765 -15.8797 6.91807 1.3369 -16.0252 12.4849 3.67173 -0.0 0.0 -0.0 0.793214 23.2152 3.77855 -27.8071 -11.8019 70.9983 0.247702 -6.99564 0.0151407 19.5194 0.269912 -2.46678 0.750899 -12.9521 -0.449646 -0.0 0.0 -0.0 13.1876 26.5748 -26.0417 66.034 -61.0829 -23.2692 0.177082 5.01336 -0.00775232 81.7457 4.04128 8.70509 -1.05887 21.2035 16.1524 0.0 0.0 0.0 46.5393 5.34183 -1.5919 -54.0148 -1.58951 7.83393 19.454 21.156 -2.74386 26.2958 -0.0 -0.0 -0.0 0.0 -0.0 29.0364 -17.3272 6.45149 -17.8211 -0.31521 -2.70563 37.0642 31.1543 5.70235 6.03325 -0.0 -0.0 0.0 0.0 0.0 
1049.61477927 716.663 -1840.30456479 -18.9531329506 24.3969790002 4.99682787352 6.06507 0.451044 1.0991 6.06566 0.380196 1.12556 6.07239 0.259301 1.1594 6.07078 0.439141 1.1039 -15.8786 7.64574 0.814836 -16.0729 14.1811 3.44451 -0.0 0.0 -0.0 2.30674 20.6026 5.75035 -30.3786 -10.7103 68.9697 0.253794 -7.16593 0.0158916 23.1548 0.226751 -2.92906 0.894923 -4.44219 4.14981 -0.0 0.0 -0.0 13.5468 26.275 -26.9116 69.1205 -60.5129 -22.1276 0.198366 5.61227 -0.00972301 84.5249 4.36973 8.84399 -1.23999 19.7504 16.8097 0.0 0.0 0.0 48.3249 5.36989 -2.1378 -49.6258 -1.18973 7.28886 12.7588 18.1494 -1.82579 24.2943 -0.0 -0.0 -0.0 0.0 -0.0 25.2862 -11.3537 5.118 -16.6192 -0.32057 -2.5213 37.6492 24.2164 5.33278 4.06864 -0.0 -0.0 0.0 0.0 0.0 
1025.77790821 710.799 -1853.04028656 -18.994340298 25.6737130928 5.3940801866 6.32664 0.346676 1.16397 6.32735 0.271912 1.18367 6.33205 0.150932 1.20508 6.33019 0.339345 1.16613 -15.9954 7.05214 1.99123 -16.1334 12.3713 4.34482 -0.0 0.0 -0.0 2.8602 19.9313 6.53673 -35.3602 -9.06496 68.6266 0.255557 -7.21517 0.0161122 24.9282 0.195073 -3.15337 0.467207 -5.13677 0.972578 -0.0 0.0 -0.0 13.3491 26.2554 -26.4548 76.2885 -61.4184 -17.9568 0.17962 5.08483 -0.00797565 85.1411 4.44342 8.87262 -2.14327 17.9606 22.4299 0.0 0.0 0.0 48.6744 1.1434 -1.98463 -38.2975 -0.362026 5.75847 2.79641 10.7594 -0.40673 22.6145 -0.0 -0.0 -0.0 0.0 -0.0 24.6777 -15.3071 6.2565 -18.192 -0.312775 -2.76249 37.8902 23.5993 5.32471 8.57271 -0.0 -0.0 0.0 0.0 0.0 
1012.18347401 708.695 -1860.18592156 -19.4313826176 27.3013774101 6.61848102477 6.28172 0.501943 1.09986 6.28229 0.430943 1.12957 6.29002 0.313791 1.16755 6.28845 0.494234 1.10335 -15.4788 6.71402 2.58264 -15.5771 11.3454 4.72201 -0.0 0.0 -0.0 4.03416 19.6646 8.28012 -39.7051 -7.96633 65.6858 0.362341 -10.1761 0.0322619 24.4758 0.203815 -3.09624 0.537069 -4.24647 1.81856 -0.0 0.0 -0.0 13.8192 26.3305 -27.5393 76.677 -60.0441 -20.0783 0.191065 5.40697 -0.00902208 85.1983 4.45028 8.87523 -2.48197 14.2054 23.3205 0.0 0.0 0.0 49.1266 0.0216551 -2.86347 -30.4615 0.0261143 4.61999 0.896567 5.5714 -0.131078 18.3219 -0.0 -0.0 -0.0 0.0 -0.0 23.4494 -18.4442 5.83631 -17.5942 -0.316518 -2.67084 37.8281 23.7633 5.32699 11.836 -0.0 -0.0 0.0 0.0 0.0 
1004.02931665 708.695 -1852.39827869 -19.6483036691 28.4567448285 7.08235172989 6.28172 0.501943 1.09986 6.28229 0.430943 1.12957 6.29002 0.313791 1.16755 6.28845 0.494234 1.10335 -15.4788 6.71402 2.58264 -15.5771 11.3454 4.72201 -0.0 0.0 -0.0 4.03416 19.6646 8.28012 -39.7051 -7.96633 65.6858 0.362341 -10.1761 0.0322619 24.4758 0.203815 -3.09624 0.537069 -4.24647 1.81856 -0.0 0.0 -0.0 13.8192 26.3305 -27.5393 76.677 -60.0441 -20.0783 0.191065 5.40697 -0.00902208 85.1983 4.45028 8.87523 -2.48197 14.2054 23.3205 0.0 0.0 0.0 49.1266 0.0216551 -2.86347 -30.4615 0.0261143 4.61999 0.896567 5.5714 -0.131078 18.3219 -0.0 -0.0 -0.0 0.0 -0.0 23.4494 -18.4442 5.83631 -17.5942 -0.316518 -2.67084 37.8281 23.7633 5.32699 11.836 -0.0 -0.0 0.0 0.0 0.0 
994.713547951 709.147 -1866.04354214 -20.5144828786 29.2741763507 7.79962021309 6.082 0.465574 1.1746 6.08268 0.389893 1.20184 6.09 0.261281 1.23619 6.08816 0.453221 1.17942 -14.8197 7.19667 1.70812 -14.949 12.7412 3.99413 -0.0 0.0 -0.0 4.56979 20.6202 9.06958 -38.715 -7.38476 64.0642 0.244948 -6.91862 0.0148071 26.0671 0.171075 -3.29686 0.497356 -1.38109 2.75028 -0.0 0.0 -0.0 13.3982 26.2483 -26.5695 75.5952 -61.4255 -23.7979 0.305442 8.60417 -0.0229775 85.2283 4.45388 8.8766 -2.7676 15.1027 25.7971 0.0 0.0 0.0 48.7449 -0.93875 -3.0032 -25.0726 0.201048 3.81176 -2.98291 -0.442648 0.444863 18.5668 -0.0 -0.0 -0.0 0.0 -0.0 22.4536 -19.1394 5.8856 -16.5866 -0.320662 -2.5163 37.8363 24.04 5.34201 14.2487 -0.0 -0.0 0.0 0.0 0.0 
990.547975024 709.147 -1861.97837945 -20.6368506722 29.8488887621 8.04764722853 6.082 0.465574 1.1746 6.08268 0.389893 1.20184 6.09 0.261281 1.23619 6.08816 0.453221 1.17942 -14.8197 7.19667 1.70812 -14.949 12.7412 3.99413 -0.0 0.0 -0.0 4.56979 20.6202 9.06958 -38.715 -7.38476 64.0642 0.244948 -6.91862 0.0148071 26.0671 0.171075 -3.29686 0.497356 -1.38109 2.75028 -0.0 0.0 -0.0 13.3982 26.2483 -26.5695 75.5952 -61.4255 -23.7979 0.305442 8.60417 -0.0229775 85.2283 4.45388 8.8766 -2.7676 15.1027 25.7971 0.0 0.0 0.0 48.7449 -0.93875 -3.0032 -25.0726 0.201048 3.81176 -2.98291 -0.442648 0.444863 18.5668 -0.0 -0.0 -0.0 0.0 -0.0 22.4536 -19.1394 5.8856 -16.5866 -0.320662 -2.5163 37.8363 24.04 5.34201 14.2487 -0.0 -0.0 0.0 0.0 0.0 
